<?xml version="1.0" encoding="UTF-8"?>
<svg width="200px" height="80px" viewBox="0 0 200 80" version="1.1" xmlns="http://www.w3.org/2000/svg" xmlns:xlink="http://www.w3.org/1999/xlink">
    <!-- Generator: Sketch 47.1 (45422) - http://www.bohemiancoding.com/sketch -->
    <title>034 - Blankstate Asset</title>
    <desc>Created with Sketch.</desc>
    <defs></defs>
    <g id="View-/Taskshow-/Comments-like-a-chat" stroke="none" stroke-width="1" fill="none" fill-rule="evenodd">
        <g id="034---Blankstate-Asset">
            <g id="Group-5-Copy" transform="translate(2.000000, 1.000000)">
                <rect id="Rectangle-19" x="0" y="0" width="196" height="78"></rect>
                <path d="M98.840661,77.5239059 C86.0578474,78.2209369 75.1420352,68.1935084 74.4601571,55.1266323 C73.7763582,42.0577927 83.5877199,30.9013705 96.3705335,30.2023761 C109.153347,29.5053451 120.069159,39.534737 120.751037,52.6016131 C121.432915,65.6684893 111.623475,76.826875 98.840661,77.5239059 Z" id="Fill-8" fill="#BACBD3"></path>
                <path d="M83.3463738,72.5438074 C85.4620551,69.460525 88.8527002,67.396 92.7904738,67.396 L101.221149,67.396 C105.237409,67.396 108.932832,69.6474559 111.071966,73.1521849 C107.604616,75.6868894 103.41284,77.2745907 98.840661,77.5239059 C93.0274742,77.8408918 87.6004057,75.9399312 83.3463738,72.5438074 Z" id="Combined-Shape" fill="#2E3548"></path>
                <path d="M95,66.7311972 L95,63.271028 C95,61.3462394 96.6463581,60 98.5,60 C100.351259,60 102,61.5398309 102,63.271028 L102,66.5398309 C102,68.4623943 100.351259,70 98.5,70 C96.4414568,70 95,68.4623943 95,66.7311972 Z" id="Fill-18" fill="#FCD3B6"></path>
                <path d="M106.535887,57.9524055 C107.936612,57.7000209 109,56.4740166 109,54.998915 C109,53.9643103 108.475513,53.0517186 107.678036,52.512636 L108,51.1520975 C107.809407,47.0552853 102.829599,46.2742951 98.8071903,46.0801762 C94.2130017,45.8838001 90.1905934,45.6896812 90,50.1769885 L90.1054992,52.0017856 C90.0708401,52.0005984 90.0360322,52 90.001085,52 C88.3432188,52 87,53.3432188 87,54.998915 C87,56.6567812 88.3432188,58 90.001085,58 C90.1587755,58 90.3136315,57.9878158 90.4647626,57.9643361 C91.0247162,61.912987 94.4050982,65 98.4260034,65 C102.448933,65 105.833748,61.9067671 106.535887,57.9524055 L106.535887,57.9524055 Z" id="Combined-Shape" fill="#FFEDD9"></path>
                <path d="M90.5114417,48.2498686 C91.2034616,49.3066075 92.3693513,50 93.6912479,50 C94.8957387,50 95.9713857,49.4243066 96.676947,48.5226051 C97.2198536,48.8271791 97.8411175,49 98.5010598,49 C99.1605422,49 99.7811957,48.8274199 100.323551,48.5232417 C101.029121,49.4245776 102.104545,50 103.308752,50 C103.621218,50 103.924967,49.9612573 104.215802,49.888131 C104.543368,49.9614181 104.883309,50 105.231882,50 C105.666679,50 106.087986,49.9399698 106.488558,49.8274332 L106.488558,56 C108.93135,56 111,53.9785073 111,51.5914029 C111,50.1344696 110.229409,48.8137298 109.073484,48.0056567 C109.679326,47.1689083 110.038462,46.1277146 110.038462,44.9988429 C110.038462,42.2379079 107.886627,40 105.231882,40 C104.059986,40 102.985656,40.4360884 102.151115,41.1607515 C101.602646,39.3299601 99.9596049,38 98.0192308,38 C96.4196309,38 95.0236131,38.9022609 94.2747837,40.2434826 C93.4984026,39.4731384 92.4468105,39 91.2884615,39 C88.8996829,39 86.9615385,41.0156702 86.9615385,43.5 C86.9615385,45.0872756 87.7527131,46.4832386 88.9471002,47.2844084 C87.2457144,47.9214882 86,49.5535621 86,51.4085971 C86,53.7957015 88.0664752,55.8171941 90.5114417,55.8171941 L90.5114417,48.2498686 L90.5114417,48.2498686 Z" id="Combined-Shape" fill="#212121"></path>
                <path d="M148.454603,63 C145.806528,63 143.639921,60.8142896 143.639921,58.1428657 L143.639921,14.2047776 L133.794117,0.122528033 C132.683206,-0.717444267 132.749463,-2.41744126 133.920005,-3.16606378 L143.639921,-2.74171927 L143.639921,-6.14286575 C143.639921,-8.81428959 145.806528,-11 148.454603,-11 L179.185318,-11 C181.833393,-11 184,-8.81428959 184,-6.14286575 L184,58.1428657 C184,60.8142896 181.833393,63 179.185318,63 L148.454603,63 Z" id="Fill-36" fill="#FFFFFF" transform="translate(158.500000, 26.000000) rotate(-90.000000) translate(-158.500000, -26.000000) "></path>
                <path d="M131.092592,13 C130.491533,13 130,12.2554375 130,11.3459788 L130,10.6540212 C130,9.74456247 130.491533,9 131.092592,9 L142.908076,9 C143.508467,9 144,9.74456247 144,10.6540212 L144,11.3459788 C144,12.2554375 143.508467,13 142.908076,13 L131.092592,13 Z" id="Fill-38" fill="#B9BDC1"></path>
                <path d="M130.904515,23 C130.407565,23 130,22.3829034 130,21.6282246 L130,20.3717754 C130,19.6170966 130.407565,19 130.904515,19 L177.095485,19 C177.593102,19 178,19.6170966 178,20.3717754 L178,21.6282246 C178,22.3829034 177.593102,23 177.095485,23 L130.904515,23 Z" id="Fill-40" fill="#B9BDC1"></path>
            </g>
        </g>
    </g>
</svg>